<svg xmlns="http://www.w3.org/2000/svg" viewBox="0 0 512 512">
  <defs>
    <linearGradient id="bg1" x1="0%" y1="0%" x2="100%" y2="100%">
      <stop offset="0%" stop-color="#4c0b8d" />
      <stop offset="100%" stop-color="#2a0454" />
    </linearGradient>
    <linearGradient id="brain" x1="0%" y1="0%" x2="100%" y2="100%">
      <stop offset="0%" stop-color="#a855f7" />
      <stop offset="100%" stop-color="#ec4899" />
    </linearGradient>
  </defs>
  <rect width="512" height="512" rx="112" fill="url(#bg1)" />
  <path d="M256 128C185.3 128 128 185.3 128 256c0 30.6 10.8 58.7 28.7 80.5-5.5 17.5-16.5 31.8-30.7 41.5 15.8 4.5 32.8 5.7 49.3 2.5 21.6 18.2 49.8 29.5 80.7 29.5 70.7 0 128-57.3 128-128S326.7 128 256 128zm0 216c-48.6 0-88-39.4-88-88s39.4-88 88-88 88 39.4 88 88-39.4 88-88 88z" fill="url(#brain)" />
  <path d="M256 192c-35.3 0-64 28.7-64 64s28.7 64 64 64 64-28.7 64-64-28.7-64-64-64zm0 96c-17.7 0-32-14.3-32-32s14.3-32 32-32 32 14.3 32 32-14.3 32-32 32z" fill="#fff" opacity="0.8" />
</svg>
