<svg xmlns="http://www.w3.org/2000/svg" viewBox="0 0 512 512">
  <defs>
    <linearGradient id="bg2" x1="0%" y1="0%" x2="100%" y2="100%">
      <stop offset="0%" stop-color="#0f172a" />
      <stop offset="100%" stop-color="#1e293b" />
    </linearGradient>
    <linearGradient id="book" x1="0%" y1="0%" x2="100%" y2="100%">
      <stop offset="0%" stop-color="#38bdf8" />
      <stop offset="100%" stop-color="#818cf8" />
    </linearGradient>
  </defs>
  <rect width="512" height="512" rx="112" fill="url(#bg2)" />
  <path d="M384 128h-96c-17.7 0-32 14.3-32 32v224c0 17.7 14.3 32 32 32h96c35.3 0 64-28.7 64-64V192c0-35.3-28.7-64-64-64zm-32 192h-64v-32h64v32zm0-64h-64v-32h64v32z" fill="url(#book)" />
  <path d="M128 128h96c17.7 0 32 14.3 32 32v224c0 17.7-14.3 32-32 32h-96c-35.3 0-64-28.7-64-64V192c0-35.3 28.7-64 64-64zm32 192h64v-32h-64v32zm0-64h64v-32h-64v32z" fill="#fff" opacity="0.9" />
</svg>
