<svg xmlns="http://www.w3.org/2000/svg" viewBox="0 0 390 844" width="390" height="844">
  <defs>
    <linearGradient id="bgGrad" x1="0" y1="0" x2="0" y2="1">
      <stop offset="0%" stop-color="#0f0b1e"/>
      <stop offset="100%" stop-color="#12091a"/>
    </linearGradient>
    <linearGradient id="purpleBtn" x1="0" y1="0" x2="1" y2="1">
      <stop offset="0%" stop-color="#7f13ec"/>
      <stop offset="100%" stop-color="#a855f7"/>
    </linearGradient>
    <linearGradient id="toggleOn" x1="0" y1="0" x2="1" y2="0">
      <stop offset="0%" stop-color="#7f13ec"/>
      <stop offset="100%" stop-color="#a855f7"/>
    </linearGradient>
  </defs>

  <rect width="390" height="844" fill="url(#bgGrad)"/>

  <!-- Status bar -->
  <rect width="390" height="44" fill="#0f0b1e"/>
  <text x="20" y="28" fill="#e2d9f3" font-family="Arial" font-size="13" font-weight="600">9:41</text>
  <text x="330" y="28" fill="#e2d9f3" font-family="Arial" font-size="11">●●● ▲ 84%</text>

  <!-- Header -->
  <rect x="0" y="44" width="390" height="60" fill="#0f0b1e"/>
  <text x="20" y="77" fill="white" font-family="Arial" font-size="22" font-weight="800">Settings</text>
  <text x="20" y="95" fill="#7c6fa8" font-family="Arial" font-size="12">Personalize your experience</text>

  <!-- Settings tabs -->
  <rect x="16" y="116" width="358" height="40" rx="20" fill="#1a0d30"/>
  <rect x="18" y="118" width="108" height="36" rx="18" fill="url(#purpleBtn)"/>
  <text x="72" y="140" fill="white" font-family="Arial" font-size="12" font-weight="700" text-anchor="middle">Appearance</text>
  <text x="192" y="140" fill="#7c6fa8" font-family="Arial" font-size="12" text-anchor="middle">Navigation</text>
  <text x="308" y="140" fill="#7c6fa8" font-family="Arial" font-size="12" text-anchor="middle">AI</text>

  <!-- Theme section -->
  <text x="20" y="180" fill="#7c6fa8" font-family="Arial" font-size="11" font-weight="700" letter-spacing="1">THEME</text>

  <!-- Theme cards row -->
  <rect x="16" y="188" width="88" height="88" rx="18" fill="#1e0a40"/>
  <rect x="16" y="188" width="88" height="88" rx="18" fill="none" stroke="#7f13ec" stroke-width="2"/>
  <text x="60" y="218" font-family="Arial" font-size="22" text-anchor="middle">⚔️</text>
  <text x="60" y="238" fill="white" font-family="Arial" font-size="9" font-weight="700" text-anchor="middle">Demon</text>
  <text x="60" y="250" fill="white" font-family="Arial" font-size="9" font-weight="700" text-anchor="middle">Slayer</text>
  <circle cx="60" cy="264" r="5" fill="#7f13ec"/>

  <rect x="114" y="188" width="88" height="88" rx="18" fill="#0a1230"/>
  <rect x="114" y="188" width="88" height="88" rx="18" fill="none" stroke="#2a1555" stroke-width="1"/>
  <text x="158" y="218" font-family="Arial" font-size="22" text-anchor="middle">💪</text>
  <text x="158" y="238" fill="#7c6fa8" font-family="Arial" font-size="9" text-anchor="middle">My Hero</text>
  <text x="158" y="250" fill="#7c6fa8" font-family="Arial" font-size="9" text-anchor="middle">Academia</text>

  <rect x="212" y="188" width="88" height="88" rx="18" fill="#1a100a"/>
  <rect x="212" y="188" width="88" height="88" rx="18" fill="none" stroke="#2a1555" stroke-width="1"/>
  <text x="256" y="218" font-family="Arial" font-size="22" text-anchor="middle">🌀</text>
  <text x="256" y="238" fill="#7c6fa8" font-family="Arial" font-size="9" text-anchor="middle">Naruto</text>
  <text x="256" y="250" fill="#7c6fa8" font-family="Arial" font-size="9" text-anchor="middle">Hokage</text>

  <rect x="286" y="188" width="88" height="88" rx="18" fill="#100820"/>
  <rect x="286" y="188" width="88" height="88" rx="18" fill="none" stroke="#2a1555" stroke-width="1"/>
  <text x="330" y="218" font-family="Arial" font-size="22" text-anchor="middle">👁️</text>
  <text x="330" y="238" fill="#7c6fa8" font-family="Arial" font-size="9" text-anchor="middle">Jujutsu</text>
  <text x="330" y="250" fill="#7c6fa8" font-family="Arial" font-size="9" text-anchor="middle">Kaisen</text>

  <!-- Appearance toggles section -->
  <text x="20" y="304" fill="#7c6fa8" font-family="Arial" font-size="11" font-weight="700" letter-spacing="1">DISPLAY</text>

  <!-- Toggle rows -->
  <rect x="16" y="312" width="358" height="214" rx="20" fill="#1a0d30"/>
  <rect x="16" y="312" width="358" height="214" rx="20" fill="none" stroke="#2a1555" stroke-width="1"/>

  <!-- Row 1 -->
  <text x="36" y="341" fill="white" font-family="Arial" font-size="14" font-weight="700">Manga Font</text>
  <text x="36" y="357" fill="#7c6fa8" font-family="Arial" font-size="11">Use anime-style display font</text>
  <rect x="310" y="330" width="48" height="26" rx="13" fill="url(#toggleOn)"/>
  <circle cx="345" cy="343" r="10" fill="white"/>
  <line x1="374" y1="368" x2="374" y2="368" stroke="#2a1555" stroke-width="1"/>
  <rect x="36" y="370" width="322" height="1" fill="#2a1555"/>

  <!-- Row 2 -->
  <text x="36" y="397" fill="white" font-family="Arial" font-size="14" font-weight="700">Speed Lines Background</text>
  <text x="36" y="413" fill="#7c6fa8" font-family="Arial" font-size="11">Manga action lines on backgrounds</text>
  <rect x="310" y="386" width="48" height="26" rx="13" fill="url(#toggleOn)"/>
  <circle cx="345" cy="399" r="10" fill="white"/>
  <rect x="36" y="426" width="322" height="1" fill="#2a1555"/>

  <!-- Row 3 -->
  <text x="36" y="453" fill="white" font-family="Arial" font-size="14" font-weight="700">Haptic Feedback</text>
  <text x="36" y="469" fill="#7c6fa8" font-family="Arial" font-size="11">Vibrate on card flip and actions</text>
  <rect x="310" y="442" width="48" height="26" rx="13" fill="#2a1555"/>
  <circle cx="323" cy="455" r="10" fill="#4a3570"/>
  <rect x="36" y="482" width="322" height="1" fill="#2a1555"/>

  <!-- Row 4 -->
  <text x="36" y="509" fill="white" font-family="Arial" font-size="14" font-weight="700">Kira Sparkle Effects</text>
  <text x="36" y="525" fill="#7c6fa8" font-family="Arial" font-size="11">★ sparkles on correct answers</text>
  <rect x="310" y="498" width="48" height="26" rx="13" fill="url(#toggleOn)"/>
  <circle cx="345" cy="511" r="10" fill="white"/>

  <!-- Font size section -->
  <text x="20" y="558" fill="#7c6fa8" font-family="Arial" font-size="11" font-weight="700" letter-spacing="1">FONT SIZE</text>
  <rect x="16" y="566" width="358" height="68" rx="18" fill="#1a0d30"/>
  <rect x="16" y="566" width="358" height="68" rx="18" fill="none" stroke="#2a1555" stroke-width="1"/>
  <text x="36" y="590" fill="white" font-family="Arial" font-size="14" font-weight="700">Text Size</text>
  <rect x="36" y="600" width="304" height="6" rx="3" fill="#2a1555"/>
  <rect x="36" y="600" width="170" height="6" rx="3" fill="url(#purpleBtn)"/>
  <circle cx="206" cy="603" r="9" fill="white" stroke="#7f13ec" stroke-width="2"/>
  <text x="36" y="622" fill="#7c6fa8" font-family="Arial" font-size="10">A</text>
  <text x="328" y="625" fill="#7c6fa8" font-family="Arial" font-size="16" font-weight="700" text-anchor="end">A</text>

  <!-- About + data row -->
  <rect x="16" y="650" width="358" height="56" rx="18" fill="#1a0d30"/>
  <rect x="16" y="650" width="358" height="56" rx="18" fill="none" stroke="#2a1555" stroke-width="1"/>
  <text x="36" y="678" fill="white" font-family="Arial" font-size="14" font-weight="700">Export Study Data</text>
  <text x="36" y="695" fill="#7c6fa8" font-family="Arial" font-size="11">Backup all flashcards & progress</text>
  <text x="366" y="682" fill="#7c6fa8" font-family="Arial" font-size="18" text-anchor="end">›</text>

  <rect x="16" y="716" width="358" height="28" rx="14" fill="#1a0d30"/>
  <text x="195" y="734" fill="#4a3570" font-family="Arial" font-size="11" text-anchor="middle">v2.0.0 · Made with ❤️ by mkr-infinity</text>

  <!-- Bottom Nav -->
  <rect x="0" y="756" width="390" height="88" fill="#0f0b1e"/>
  <rect x="0" y="756" width="390" height="1" fill="#2a1555"/>
  <rect x="24" y="760" width="342" height="56" rx="28" fill="#1a0d30"/>
  <rect x="24" y="760" width="342" height="56" rx="28" fill="none" stroke="#2a1555" stroke-width="1"/>
  <text x="70" y="785" font-family="Arial" font-size="18" text-anchor="middle">🏠</text>
  <text x="70" y="802" fill="#7c6fa8" font-family="Arial" font-size="9" text-anchor="middle">Home</text>
  <text x="133" y="785" font-family="Arial" font-size="18" text-anchor="middle">📚</text>
  <text x="133" y="802" fill="#7c6fa8" font-family="Arial" font-size="9" text-anchor="middle">Cards</text>
  <text x="195" y="785" font-family="Arial" font-size="18" text-anchor="middle">📝</text>
  <text x="195" y="802" fill="#7c6fa8" font-family="Arial" font-size="9" text-anchor="middle">Tests</text>
  <text x="257" y="785" font-family="Arial" font-size="18" text-anchor="middle">📊</text>
  <text x="257" y="802" fill="#7c6fa8" font-family="Arial" font-size="9" text-anchor="middle">Stats</text>
  <rect x="298" y="764" width="80" height="48" rx="24" fill="url(#purpleBtn)"/>
  <text x="338" y="787" font-family="Arial" font-size="18" text-anchor="middle">⚙️</text>
  <text x="338" y="804" fill="white" font-family="Arial" font-size="9" font-weight="700" text-anchor="middle">Settings</text>
  <rect x="165" y="836" width="60" height="4" rx="2" fill="#3a2060"/>
</svg>
