<svg xmlns="http://www.w3.org/2000/svg" viewBox="0 0 390 844" width="390" height="844">
  <defs>
    <linearGradient id="bgGrad" x1="0" y1="0" x2="0" y2="1">
      <stop offset="0%" stop-color="#0f0b1e"/>
      <stop offset="100%" stop-color="#12091a"/>
    </linearGradient>
    <linearGradient id="purpleBtn" x1="0" y1="0" x2="1" y2="1">
      <stop offset="0%" stop-color="#7f13ec"/>
      <stop offset="100%" stop-color="#a855f7"/>
    </linearGradient>
    <linearGradient id="cyanBtn" x1="0" y1="0" x2="1" y2="1">
      <stop offset="0%" stop-color="#06b6d4"/>
      <stop offset="100%" stop-color="#3b82f6"/>
    </linearGradient>
    <linearGradient id="pinkBtn" x1="0" y1="0" x2="1" y2="1">
      <stop offset="0%" stop-color="#ec4899"/>
      <stop offset="100%" stop-color="#f97316"/>
    </linearGradient>
    <linearGradient id="greenBtn" x1="0" y1="0" x2="1" y2="1">
      <stop offset="0%" stop-color="#10b981"/>
      <stop offset="100%" stop-color="#06b6d4"/>
    </linearGradient>
  </defs>

  <rect width="390" height="844" fill="url(#bgGrad)"/>

  <!-- Status bar -->
  <rect width="390" height="44" fill="#0f0b1e"/>
  <text x="20" y="28" fill="#e2d9f3" font-family="Arial" font-size="13" font-weight="600">9:41</text>
  <text x="330" y="28" fill="#e2d9f3" font-family="Arial" font-size="11">●●● ▲ 84%</text>

  <!-- Header -->
  <rect x="0" y="44" width="390" height="60" fill="#0f0b1e"/>
  <text x="20" y="77" fill="white" font-family="Arial" font-size="22" font-weight="800">Formula Library</text>
  <text x="20" y="95" fill="#7c6fa8" font-family="Arial" font-size="12">32 formulas · 4 subjects</text>
  <!-- Add button -->
  <circle cx="362" cy="74" r="20" fill="url(#purpleBtn)"/>
  <text x="362" y="81" fill="white" font-family="Arial" font-size="20" font-weight="300" text-anchor="middle">+</text>

  <!-- Search bar -->
  <rect x="16" y="116" width="310" height="44" rx="14" fill="#1a0d30"/>
  <rect x="16" y="116" width="310" height="44" rx="14" fill="none" stroke="#2a1555" stroke-width="1"/>
  <text x="40" y="143" fill="#7c6fa8" font-family="Arial" font-size="16">🔍</text>
  <text x="64" y="143" fill="#4a3570" font-family="Arial" font-size="14">Search formulas…</text>
  <!-- Filter button -->
  <rect x="336" y="116" width="44" height="44" rx="14" fill="#1a0d30"/>
  <rect x="336" y="116" width="44" height="44" rx="14" fill="none" stroke="#2a1555" stroke-width="1"/>
  <text x="358" y="143" fill="#7c6fa8" font-family="Arial" font-size="18" text-anchor="middle">⚙</text>

  <!-- Subject filter chips -->
  <rect x="16" y="172" width="72" height="30" rx="15" fill="url(#purpleBtn)"/>
  <text x="52" y="191" fill="white" font-family="Arial" font-size="11" font-weight="700" text-anchor="middle">All</text>
  <rect x="98" y="172" width="86" height="30" rx="15" fill="#1a0d30"/>
  <text x="141" y="191" fill="#7c6fa8" font-family="Arial" font-size="11" text-anchor="middle">⚗️ Chem</text>
  <rect x="194" y="172" width="80" height="30" rx="15" fill="#1a0d30"/>
  <text x="234" y="191" fill="#7c6fa8" font-family="Arial" font-size="11" text-anchor="middle">📐 Math</text>
  <rect x="284" y="172" width="84" height="30" rx="15" fill="#1a0d30"/>
  <text x="326" y="191" fill="#7c6fa8" font-family="Arial" font-size="11" text-anchor="middle">🔬 Physics</text>

  <!-- Section header -->
  <text x="20" y="224" fill="#7c6fa8" font-family="Arial" font-size="11" font-weight="700" letter-spacing="1">MATHEMATICS</text>

  <!-- Formula card 1 -->
  <rect x="16" y="232" width="358" height="84" rx="18" fill="#1a0d30"/>
  <rect x="16" y="232" width="358" height="84" rx="18" fill="none" stroke="#2a1555" stroke-width="1"/>
  <rect x="16" y="232" width="5" height="84" rx="2.5" fill="url(#pinkBtn)"/>
  <text x="34" y="256" fill="white" font-family="Arial" font-size="14" font-weight="700">Quadratic Formula</text>
  <rect x="34" y="264" width="284" height="36" rx="8" fill="#12063a"/>
  <text x="176" y="287" fill="#e2d9f3" font-family="Arial" font-size="17" font-weight="700" text-anchor="middle">x = (−b ± √(b²−4ac)) / 2a</text>
  <text x="350" y="256" fill="#4a3570" font-family="Arial" font-size="18" text-anchor="end">★</text>

  <!-- Formula card 2 -->
  <rect x="16" y="326" width="358" height="84" rx="18" fill="#1a0d30"/>
  <rect x="16" y="326" width="358" height="84" rx="18" fill="none" stroke="#2a1555" stroke-width="1"/>
  <rect x="16" y="326" width="5" height="84" rx="2.5" fill="url(#pinkBtn)"/>
  <text x="34" y="350" fill="white" font-family="Arial" font-size="14" font-weight="700">Pythagorean Theorem</text>
  <rect x="34" y="358" width="200" height="36" rx="8" fill="#12063a"/>
  <text x="134" y="381" fill="#e2d9f3" font-family="Arial" font-size="17" font-weight="700" text-anchor="middle">a² + b² = c²</text>
  <text x="350" y="350" fill="#f59e0b" font-family="Arial" font-size="18" text-anchor="end">★</text>

  <!-- Section header -->
  <text x="20" y="432" fill="#7c6fa8" font-family="Arial" font-size="11" font-weight="700" letter-spacing="1">PHYSICS</text>

  <!-- Formula card 3 -->
  <rect x="16" y="440" width="358" height="84" rx="18" fill="#1a0d30"/>
  <rect x="16" y="440" width="358" height="84" rx="18" fill="none" stroke="#2a1555" stroke-width="1"/>
  <rect x="16" y="440" width="5" height="84" rx="2.5" fill="url(#cyanBtn)"/>
  <text x="34" y="464" fill="white" font-family="Arial" font-size="14" font-weight="700">Newton's Second Law</text>
  <rect x="34" y="472" width="160" height="36" rx="8" fill="#04181f"/>
  <text x="114" y="495" fill="#67e8f9" font-family="Arial" font-size="17" font-weight="700" text-anchor="middle">F = ma</text>
  <text x="350" y="464" fill="#4a3570" font-family="Arial" font-size="18" text-anchor="end">☆</text>

  <!-- Formula card 4 -->
  <rect x="16" y="534" width="358" height="84" rx="18" fill="#1a0d30"/>
  <rect x="16" y="534" width="358" height="84" rx="18" fill="none" stroke="#2a1555" stroke-width="1"/>
  <rect x="16" y="534" width="5" height="84" rx="2.5" fill="url(#cyanBtn)"/>
  <text x="34" y="558" fill="white" font-family="Arial" font-size="14" font-weight="700">Kinetic Energy</text>
  <rect x="34" y="566" width="190" height="36" rx="8" fill="#04181f"/>
  <text x="129" y="589" fill="#67e8f9" font-family="Arial" font-size="17" font-weight="700" text-anchor="middle">KE = ½mv²</text>
  <text x="350" y="558" fill="#f59e0b" font-family="Arial" font-size="18" text-anchor="end">★</text>

  <!-- Section header -->
  <text x="20" y="640" fill="#7c6fa8" font-family="Arial" font-size="11" font-weight="700" letter-spacing="1">CHEMISTRY</text>

  <!-- Formula card 5 partial -->
  <rect x="16" y="648" width="358" height="84" rx="18" fill="#1a0d30"/>
  <rect x="16" y="648" width="358" height="84" rx="18" fill="none" stroke="#2a1555" stroke-width="1"/>
  <rect x="16" y="648" width="5" height="84" rx="2.5" fill="url(#greenBtn)"/>
  <text x="34" y="672" fill="white" font-family="Arial" font-size="14" font-weight="700">Ideal Gas Law</text>
  <rect x="34" y="680" width="220" height="36" rx="8" fill="#021a0e"/>
  <text x="144" y="703" fill="#6ee7b7" font-family="Arial" font-size="17" font-weight="700" text-anchor="middle">PV = nRT</text>
  <text x="350" y="672" fill="#4a3570" font-family="Arial" font-size="18" text-anchor="end">☆</text>

  <!-- Bottom Nav -->
  <rect x="0" y="756" width="390" height="88" fill="#0f0b1e"/>
  <rect x="0" y="756" width="390" height="1" fill="#2a1555"/>
  <rect x="24" y="760" width="342" height="56" rx="28" fill="#1a0d30"/>
  <rect x="24" y="760" width="342" height="56" rx="28" fill="none" stroke="#2a1555" stroke-width="1"/>
  <text x="70" y="785" font-family="Arial" font-size="18" text-anchor="middle">🏠</text>
  <text x="70" y="802" fill="#7c6fa8" font-family="Arial" font-size="9" text-anchor="middle">Home</text>
  <text x="133" y="785" font-family="Arial" font-size="18" text-anchor="middle">📚</text>
  <text x="133" y="802" fill="#7c6fa8" font-family="Arial" font-size="9" text-anchor="middle">Cards</text>
  <text x="195" y="785" font-family="Arial" font-size="18" text-anchor="middle">📝</text>
  <text x="195" y="802" fill="#7c6fa8" font-family="Arial" font-size="9" text-anchor="middle">Tests</text>
  <text x="257" y="785" font-family="Arial" font-size="18" text-anchor="middle">📊</text>
  <text x="257" y="802" fill="#7c6fa8" font-family="Arial" font-size="9" text-anchor="middle">Stats</text>
  <text x="319" y="785" font-family="Arial" font-size="18" text-anchor="middle">⚙️</text>
  <text x="319" y="802" fill="#7c6fa8" font-family="Arial" font-size="9" text-anchor="middle">Settings</text>
  <rect x="165" y="836" width="60" height="4" rx="2" fill="#3a2060"/>
</svg>
