<svg xmlns="http://www.w3.org/2000/svg" viewBox="0 0 390 844" width="390" height="844">
  <defs>
    <linearGradient id="bgGrad" x1="0" y1="0" x2="0" y2="1">
      <stop offset="0%" stop-color="#0f0b1e"/>
      <stop offset="100%" stop-color="#12091a"/>
    </linearGradient>
    <linearGradient id="purpleBtn" x1="0" y1="0" x2="1" y2="1">
      <stop offset="0%" stop-color="#7f13ec"/>
      <stop offset="100%" stop-color="#a855f7"/>
    </linearGradient>
    <!-- Theme gradients -->
    <linearGradient id="demonSlayer" x1="0" y1="0" x2="1" y2="1">
      <stop offset="0%" stop-color="#2a0a14"/>
      <stop offset="100%" stop-color="#ff3a5e"/>
    </linearGradient>
    <linearGradient id="myHero" x1="0" y1="0" x2="1" y2="1">
      <stop offset="0%" stop-color="#0a1230"/>
      <stop offset="100%" stop-color="#1f6dff"/>
    </linearGradient>
    <linearGradient id="naruto" x1="0" y1="0" x2="1" y2="1">
      <stop offset="0%" stop-color="#2a1500"/>
      <stop offset="100%" stop-color="#f97316"/>
    </linearGradient>
    <linearGradient id="jjk" x1="0" y1="0" x2="1" y2="1">
      <stop offset="0%" stop-color="#100820"/>
      <stop offset="100%" stop-color="#7f13ec"/>
    </linearGradient>
    <linearGradient id="bleach" x1="0" y1="0" x2="1" y2="1">
      <stop offset="0%" stop-color="#050810"/>
      <stop offset="100%" stop-color="#06b6d4"/>
    </linearGradient>
    <linearGradient id="vinland" x1="0" y1="0" x2="1" y2="1">
      <stop offset="0%" stop-color="#04181a"/>
      <stop offset="100%" stop-color="#10b981"/>
    </linearGradient>
  </defs>

  <rect width="390" height="844" fill="url(#bgGrad)"/>

  <!-- Status bar -->
  <rect width="390" height="44" fill="#0f0b1e"/>
  <text x="20" y="28" fill="#e2d9f3" font-family="Arial" font-size="13" font-weight="600">9:41</text>
  <text x="330" y="28" fill="#e2d9f3" font-family="Arial" font-size="11">●●● ▲ 84%</text>

  <!-- Header -->
  <rect x="0" y="44" width="390" height="60" fill="#0f0b1e"/>
  <text x="20" y="77" fill="#a78bfa" font-family="Arial" font-size="22">←</text>
  <text x="195" y="77" fill="white" font-family="Arial" font-size="20" font-weight="800" text-anchor="middle">Choose Your Theme</text>

  <!-- Sub heading -->
  <text x="195" y="116" fill="#7c6fa8" font-family="Arial" font-size="13" text-anchor="middle">Each theme is a full anime-world experience</text>

  <!-- Theme preview large (selected) -->
  <rect x="16" y="130" width="358" height="150" rx="24" fill="url(#demonSlayer)"/>
  <rect x="16" y="130" width="358" height="150" rx="24" fill="none" stroke="#ff3a5e" stroke-width="2"/>
  <!-- Checker pattern overlay -->
  <g opacity="0.15">
    <rect x="28" y="142" width="14" height="14" fill="#2dd17a"/>
    <rect x="56" y="142" width="14" height="14" fill="#2dd17a"/>
    <rect x="42" y="156" width="14" height="14" fill="#2dd17a"/>
    <rect x="70" y="156" width="14" height="14" fill="#2dd17a"/>
    <rect x="28" y="170" width="14" height="14" fill="#2dd17a"/>
    <rect x="56" y="170" width="14" height="14" fill="#2dd17a"/>
  </g>
  <text x="195" y="186" fill="white" font-family="Arial" font-size="28" font-weight="900" text-anchor="middle">⚔️ Demon Slayer</text>
  <text x="195" y="210" fill="rgba(255,255,255,0.7)" font-family="Arial" font-size="13" text-anchor="middle">Tanjiro · Crimson Red + Haori Checker</text>
  <!-- Mini preview cards -->
  <rect x="36" y="228" width="70" height="36" rx="10" fill="rgba(255,58,94,0.3)"/>
  <text x="71" y="250" fill="white" font-family="Arial" font-size="10" text-anchor="middle">Flashcard</text>
  <rect x="116" y="228" width="70" height="36" rx="10" fill="rgba(255,58,94,0.2)"/>
  <text x="151" y="250" fill="white" font-family="Arial" font-size="10" text-anchor="middle">Stat Bar</text>
  <rect x="196" y="228" width="70" height="36" rx="10" fill="rgba(45,209,122,0.2)"/>
  <text x="231" y="250" fill="white" font-family="Arial" font-size="10" text-anchor="middle">Accent</text>
  <!-- Active badge -->
  <rect x="280" y="236" width="80" height="24" rx="12" fill="#ff3a5e"/>
  <text x="320" y="252" fill="white" font-family="Arial" font-size="11" font-weight="700" text-anchor="middle">✓ Active</text>

  <!-- Theme grid 2x3 -->
  <text x="20" y="306" fill="#7c6fa8" font-family="Arial" font-size="11" font-weight="700" letter-spacing="1">ALL THEMES</text>

  <!-- Row 1 -->
  <!-- MHA -->
  <rect x="16" y="316" width="114" height="130" rx="20" fill="url(#myHero)"/>
  <rect x="16" y="316" width="114" height="130" rx="20" fill="none" stroke="#2a1555" stroke-width="1"/>
  <text x="73" y="356" font-family="Arial" font-size="30" text-anchor="middle">💪</text>
  <text x="73" y="380" fill="white" font-family="Arial" font-size="11" font-weight="700" text-anchor="middle">My Hero</text>
  <text x="73" y="396" fill="rgba(255,255,255,0.6)" font-family="Arial" font-size="10" text-anchor="middle">Academia</text>
  <rect x="36" y="410" width="74" height="20" rx="10" fill="rgba(31,109,255,0.4)"/>
  <text x="73" y="423" fill="#93c5fd" font-family="Arial" font-size="9" text-anchor="middle">Hero Blue</text>

  <!-- Naruto -->
  <rect x="138" y="316" width="114" height="130" rx="20" fill="url(#naruto)"/>
  <rect x="138" y="316" width="114" height="130" rx="20" fill="none" stroke="#2a1555" stroke-width="1"/>
  <text x="195" y="356" font-family="Arial" font-size="30" text-anchor="middle">🌀</text>
  <text x="195" y="380" fill="white" font-family="Arial" font-size="11" font-weight="700" text-anchor="middle">Naruto</text>
  <text x="195" y="396" fill="rgba(255,255,255,0.6)" font-family="Arial" font-size="10" text-anchor="middle">Hokage</text>
  <rect x="158" y="410" width="74" height="20" rx="10" fill="rgba(249,115,22,0.4)"/>
  <text x="195" y="423" fill="#fdba74" font-family="Arial" font-size="9" text-anchor="middle">Leaf Orange</text>

  <!-- JJK -->
  <rect x="260" y="316" width="114" height="130" rx="20" fill="url(#jjk)"/>
  <rect x="260" y="316" width="114" height="130" rx="20" fill="none" stroke="#2a1555" stroke-width="1"/>
  <text x="317" y="356" font-family="Arial" font-size="30" text-anchor="middle">👁️</text>
  <text x="317" y="380" fill="white" font-family="Arial" font-size="11" font-weight="700" text-anchor="middle">Jujutsu</text>
  <text x="317" y="396" fill="rgba(255,255,255,0.6)" font-family="Arial" font-size="10" text-anchor="middle">Kaisen</text>
  <rect x="280" y="410" width="74" height="20" rx="10" fill="rgba(127,19,236,0.4)"/>
  <text x="317" y="423" fill="#c4b5fd" font-family="Arial" font-size="9" text-anchor="middle">Cursed Violet</text>

  <!-- Row 2 -->
  <!-- Bleach -->
  <rect x="16" y="456" width="114" height="130" rx="20" fill="url(#bleach)"/>
  <rect x="16" y="456" width="114" height="130" rx="20" fill="none" stroke="#2a1555" stroke-width="1"/>
  <text x="73" y="496" font-family="Arial" font-size="30" text-anchor="middle">⚡</text>
  <text x="73" y="520" fill="white" font-family="Arial" font-size="11" font-weight="700" text-anchor="middle">Bleach</text>
  <text x="73" y="536" fill="rgba(255,255,255,0.6)" font-family="Arial" font-size="10" text-anchor="middle">Zanpakuto</text>
  <rect x="36" y="550" width="74" height="20" rx="10" fill="rgba(6,182,212,0.4)"/>
  <text x="73" y="563" fill="#67e8f9" font-family="Arial" font-size="9" text-anchor="middle">Reiatsu Cyan</text>

  <!-- Vinland -->
  <rect x="138" y="456" width="114" height="130" rx="20" fill="url(#vinland)"/>
  <rect x="138" y="456" width="114" height="130" rx="20" fill="none" stroke="#2a1555" stroke-width="1"/>
  <text x="195" y="496" font-family="Arial" font-size="30" text-anchor="middle">🪓</text>
  <text x="195" y="520" fill="white" font-family="Arial" font-size="11" font-weight="700" text-anchor="middle">Vinland</text>
  <text x="195" y="536" fill="rgba(255,255,255,0.6)" font-family="Arial" font-size="10" text-anchor="middle">Saga</text>
  <rect x="158" y="550" width="74" height="20" rx="10" fill="rgba(16,185,129,0.4)"/>
  <text x="195" y="563" fill="#6ee7b7" font-family="Arial" font-size="9" text-anchor="middle">Frost Teal</text>

  <!-- Custom placeholder -->
  <rect x="260" y="456" width="114" height="130" rx="20" fill="#1a0d30"/>
  <rect x="260" y="456" width="114" height="130" rx="20" fill="none" stroke="#2a1555" stroke-width="1.5" stroke-dasharray="6 4"/>
  <text x="317" y="506" font-family="Arial" font-size="30" text-anchor="middle">🎨</text>
  <text x="317" y="530" fill="#4a3570" font-family="Arial" font-size="11" font-weight="700" text-anchor="middle">More</text>
  <text x="317" y="546" fill="#4a3570" font-family="Arial" font-size="10" text-anchor="middle">Coming Soon</text>

  <!-- CTA -->
  <rect x="16" y="604" width="358" height="52" rx="26" fill="url(#purpleBtn)"/>
  <text x="195" y="635" fill="white" font-family="Arial" font-size="16" font-weight="800" text-anchor="middle">Apply Theme ✨</text>

  <!-- Info row -->
  <text x="195" y="674" fill="#4a3570" font-family="Arial" font-size="11" text-anchor="middle">Themes include colors, fonts, patterns &amp; animations</text>

  <!-- Bottom Nav -->
  <rect x="0" y="756" width="390" height="88" fill="#0f0b1e"/>
  <rect x="0" y="756" width="390" height="1" fill="#2a1555"/>
  <rect x="24" y="760" width="342" height="56" rx="28" fill="#1a0d30"/>
  <rect x="24" y="760" width="342" height="56" rx="28" fill="none" stroke="#2a1555" stroke-width="1"/>
  <text x="70" y="785" font-family="Arial" font-size="18" text-anchor="middle">🏠</text>
  <text x="70" y="802" fill="#7c6fa8" font-family="Arial" font-size="9" text-anchor="middle">Home</text>
  <text x="133" y="785" font-family="Arial" font-size="18" text-anchor="middle">📚</text>
  <text x="133" y="802" fill="#7c6fa8" font-family="Arial" font-size="9" text-anchor="middle">Cards</text>
  <text x="195" y="785" font-family="Arial" font-size="18" text-anchor="middle">📝</text>
  <text x="195" y="802" fill="#7c6fa8" font-family="Arial" font-size="9" text-anchor="middle">Tests</text>
  <text x="257" y="785" font-family="Arial" font-size="18" text-anchor="middle">📊</text>
  <text x="257" y="802" fill="#7c6fa8" font-family="Arial" font-size="9" text-anchor="middle">Stats</text>
  <rect x="298" y="764" width="80" height="48" rx="24" fill="url(#purpleBtn)"/>
  <text x="338" y="787" font-family="Arial" font-size="18" text-anchor="middle">⚙️</text>
  <text x="338" y="804" fill="white" font-family="Arial" font-size="9" font-weight="700" text-anchor="middle">Settings</text>
  <rect x="165" y="836" width="60" height="4" rx="2" fill="#3a2060"/>
</svg>
